OpenSim_Sub10_EMGBaseline_GRF.mot
version=1
nRows=47
nColumns=19
inDegrees=no
endheader
time	lFx	lFy	lFz	lCOPx	lCOPy	lCOPz	rFx	rFy	rFz	rCOPx	rCOPy	rCOPz	lMx	lMy	lMz	rMx	rMy	rMz
61.50000000	51.56191151	301.20034784	11.27240758	0.66138149	0	-0.63346593	3.70779851	171.83915926	20.79251922	1.07320982	0	-0.46092989	0	3.29776733	0	0	-0.96178424	0
61.51000000	45.78286513	255.40086464	8.77308080	0.65998089	0	-0.63346226	-2.69750806	198.81196060	17.03892936	1.05728193	0	-0.45284628	0	2.89926571	0	0	-0.73580296	0.00000000
61.52000000	40.38289582	210.89631970	6.57235880	0.66027600	0	-0.63599200	-9.89750098	223.33689199	10.85534549	1.04305665	0	-0.44463856	0	2.39881042	0	0	-0.55199067	-0.00000000
61.53000000	35.34713806	169.03995650	4.90202329	0.66180873	0	-0.64158421	-18.11401465	246.63821498	3.49785402	1.03455042	0	-0.43894198	0	1.80497088	0	0	-0.49131789	0
61.54000000	29.82961145	131.18288573	4.08970706	0.66136036	0	-0.64677756	-27.27240587	269.87259827	-3.77376932	1.03083695	0	-0.43529831	0	1.07684067	0	0	-0.47989225	0
61.55000000	23.43028062	98.43933886	3.80423903	0.65012911	0	-0.63985942	-36.84978816	293.39701102	-10.47015565	1.02977650	0	-0.43301841	0	0.35689606	0	0	-0.54512238	0
61.56000000	16.30885473	71.88111652	3.53850759	0.61087933	0	-0.59853149	-45.25588639	317.36208982	-16.06498253	1.02968030	0	-0.43149808	0	-0.09782163	0	0	-0.67054867	-0.00000000
61.57000000	9.44463053	51.27337241	3.29075149	0.52167230	0	-0.49774109	-51.86473336	342.01523299	-21.25940888	1.02943801	0	-0.43032875	0	-0.15680504	0	0	-0.77517291	0
61.58000000	3.79538449	35.28716521	3.11965887	0.37698273	0	-0.34223975	-57.00271269	367.50849131	-26.61692388	1.02827037	0	-0.42944232	0	-0.08897886	0	0	-0.92369603	0
61.59000000	0.15449411	22.69945236	2.79883950	0.21659635	0	-0.18524193	-60.19810136	394.01280855	-31.17175866	1.02593324	0	-0.42890215	0	-0.09649989	0	0	-1.15063310	-0.00000000
61.60000000	-0.81687589	12.73584527	2.20781127	0.09244892	0	-0.07316064	-61.09858539	421.41191985	-33.83121060	1.02182712	0	-0.42873825	0	-0.10569762	0	0	-1.37821844	0
61.61000000	0.48561091	5.41975445	1.48039305	0.01921658	0	-0.01160258	-60.38820107	449.70017804	-34.64144517	1.01636200	0	-0.42883167	0	-0.06510274	0	0	-1.53203630	0
61.62000000	2.12644094	1.46011513	0.94130485	-0.00887898	0	0.00993437	-58.88726374	478.45028500	-34.26391212	1.01033146	0	-0.42899051	0	-0.02464284	0	0	-1.62967543	0.00000000
61.63000000	3.06642625	0.18699973	0.76531587	-0.01223038	0	0.01107378	-57.18266532	506.60129959	-33.53183991	1.00438215	0	-0.42912136	0	-0.00271009	0	0	-1.70385720	0
61.64000000	3.35789526	0.31452618	0.69207264	-0.00752452	0	0.00631317	-55.75569220	532.83912651	-33.23202964	0.99860169	0	-0.42919307	0	0.00431265	0	0	-1.73930141	-0.00000000
61.65000000	3.29887625	0.87054759	0.67875374	-0.00284452	0	0.00217236	-54.86440894	556.30726793	-33.86613749	0.99312287	0	-0.42911915	0	0.00419367	0	0	-1.73901748	0
61.66000000	3.14370944	1.33130268	0.75203059	-0.00031026	0	0.00008750	-54.41149693	576.79950095	-35.59601114	0.98777681	0	-0.42883864	0	0.00224564	0	0	-1.75255642	-0.00000000
61.67000000	3.03300407	1.61276758	0.81410472	0.00049988	0	-0.00050231	-53.96772886	594.45285501	-38.34616953	0.98221760	0	-0.42842928	0	0.00070557	0	0	-1.78173783	0
61.68000000	3.00224593	1.67950223	0.84414222	0.00048507	0	-0.00042829	-53.14619921	609.68248881	-41.83335655	0.97628280	0	-0.42800446	0	-0.00002305	0	0	-1.78858798	0
61.69000000	3.01428466	1.53508955	0.82746532	0.00025947	0	-0.00021302	-51.62495437	623.06564058	-45.64898437	0.97002069	0	-0.42758912	0	-0.00020467	0	0	-1.82959230	-0.00000000
61.70000000	3.00715427	1.34735585	0.83427040	0.00008139	0	-0.00005889	-49.42346015	634.77890798	-49.49759638	0.96358083	0	-0.42716634	0	-0.00015903	0	0	-1.87421033	0.00000000
61.71000000	2.98168023	1.24553586	0.86152932	-0.00000277	0	0.00000867	-46.79950460	644.57733439	-53.14990671	0.95704797	0	-0.42671977	0	-0.00007431	0	0	-1.88414821	0.00000000
61.72000000	2.95454660	1.22847610	0.86420840	-0.00002370	0	0.00002252	-44.01042364	652.16047487	-56.27223280	0.95050858	0	-0.42624657	0	-0.00001800	0	0	-1.91101254	0.00000000
61.73000000	2.91758729	1.23644925	0.84913200	-0.00001838	0	0.00001588	-41.16342387	657.07534706	-58.61115957	0.94398008	0	-0.42579255	0	0.00000509	0	0	-1.95878896	-0.00000000
61.74000000	2.87247166	1.19196720	0.81786737	-0.00000858	0	0.00000687	-38.44131988	658.72490597	-60.10663822	0.93772470	0	-0.42537602	0	0.00000887	0	0	-1.93955805	-0.00000000
61.75000000	2.82681070	1.18966305	0.79915294	-0.00000208	0	0.00000136	-36.10820893	656.74208912	-60.67473708	0.93192311	0	-0.42497266	0	0.00000582	0	0	-1.87915459	0.00000000
61.76000000	2.79148716	1.23362544	0.75769170	0.00000055	0	-0.00000070	-34.16028263	651.33636943	-60.23012749	0.92638457	0	-0.42460970	0	0.00000230	0	0	-1.82418958	-0.00000000
61.77000000	2.77110345	1.21247756	0.70365459	0.00000094	0	-0.00000089	-32.18613295	643.41746458	-58.93351911	0.92069205	0	-0.42435513	0	0.00000013	0	0	-1.71476080	-0.00000000
61.78000000	2.77706353	1.07428795	0.69251183	0.00000055	0	-0.00000050	-29.77965204	634.57986457	-57.11535498	0.91489298	0	-0.42419103	0	-0.00000088	0	0	-1.52754797	0
61.79000000	2.81269247	0.93511527	0.72966871	0.00000024	0	-0.00000019	-26.91193140	626.05479204	-55.11819771	0.90908759	0	-0.42406297	0	-0.00000118	0	0	-1.35523538	-0.00000000
61.80000000	2.83533023	0.87193103	0.79890228	0.00000039	0	-0.00000023	-23.77706959	618.30261234	-53.29668855	0.90319446	0	-0.42393144	0	-0.00000060	0	0	-1.20844251	0
61.81000000	2.80332110	0.90925260	0.83307455	0.00000115	0	-0.00000068	-20.61124738	611.26693509	-51.88429972	0.89706500	0	-0.42378254	0	0.00000181	0	0	-1.02839180	0
61.82000000	2.75832045	1.01390084	0.82269464	0.00000227	0	-0.00000135	-17.55798582	604.87023210	-50.75105778	0.89079561	0	-0.42355536	0	0.00000726	0	0	-0.85083626	0
61.83000000	2.73550940	1.01042971	0.79391248	0.00000253	0	-0.00000151	-14.69425266	599.12627122	-49.74400917	0.88458954	0	-0.42322407	0	0.00001511	0	0	-0.66355565	0
61.84000000	2.72626963	0.89295891	0.77805228	-0.00000096	0	0.00000060	-12.03860480	594.05552550	-48.79195142	0.87862345	0	-0.42280472	0	0.00001861	0	0	-0.43454789	0
61.85000000	2.74776294	0.78800519	0.81008374	-0.00001260	0	0.00000762	-9.59801006	589.90531796	-47.83616173	0.87297468	0	-0.42229302	0	-0.00000031	0	0	-0.18319751	-0.00000000
61.86000000	2.80863123	0.77728704	0.85992590	-0.00003493	0	0.00002106	-7.25796955	586.79284814	-46.85931841	0.86742994	0	-0.42174586	0	-0.00007150	0	0	0.04653767	0
61.87000000	2.88218379	0.86154363	0.87789386	-0.00005905	0	0.00003552	-5.01303416	584.84077651	-45.99256212	0.86194856	0	-0.42121843	0	-0.00021751	0	0	0.28058287	0
61.88000000	2.93429797	0.94913282	0.86490767	-0.00004819	0	0.00002879	-2.91530667	584.13726696	-45.28922339	0.85671545	0	-0.42071294	0	-0.00039421	0	0	0.50341321	0.00000000
61.89000000	2.96742873	1.01870765	0.81665769	0.00007652	0	-0.00004662	-0.95928256	584.88668238	-44.85753032	0.85173732	0	-0.42017018	0	-0.00038106	0	0	0.67843262	0
61.90000000	2.97683189	1.05672607	0.80549656	0.00041679	0	-0.00025180	1.04092286	586.98199199	-44.85081387	0.84660861	0	-0.41961306	0	0.00032921	0	0	0.84030831	0
61.91000000	2.99219850	1.04558867	0.84565315	0.00098476	0	-0.00059342	3.24424025	590.25857261	-45.22956334	0.84131174	0	-0.41902662	0	0.00245193	0	0	1.00803451	0
61.92000000	3.03502686	1.02090477	0.90021168	0.00143183	0	-0.00086041	5.64540601	594.49910932	-45.75174555	0.83605925	0	-0.41835767	0	0.00625179	0	0	1.16816410	0
61.93000000	3.10772480	0.97689262	0.93557545	0.00064566	0	-0.00038169	8.14849452	599.35065481	-46.18661379	0.83086589	0	-0.41763460	0	0.00982594	0	0	1.33926286	0
61.94000000	3.19844046	0.74794059	0.98874574	-0.00345434	0	0.00209504	10.64814175	604.68372379	-46.44383016	0.82560744	0	-0.41690697	0	0.00635016	0	0	1.56631007	-0.00000000
61.95000000	3.24172772	0.12017937	1.08700492	-0.01301463	0	0.00785577	13.25957403	610.55824127	-46.59026687	0.82014156	0	-0.41620449	0	-0.01783452	0	0	1.80619053	0.00000000
61.96000000	3.05519567	-0.84126117	1.19957581	-0.02671151	0	0.01608556	16.08168606	616.90025025	-46.78955189	0.81459069	0	-0.41555460	0	-0.07863241	0	0	2.03136664	0
